<svg width="83" height="86" viewBox="0 0 83 86" fill="none" xmlns="http://www.w3.org/2000/svg">
<path d="M69.7166 7.51929H4.27222C2.46502 7.51929 1 8.97871 1 10.779V75.973C1 77.7733 2.46502 79.2327 4.27222 79.2327H69.7166C71.5238 79.2327 72.9888 77.7733 72.9888 75.973V10.779C72.9888 8.97871 71.5238 7.51929 69.7166 7.51929Z" stroke="#262626" stroke-linecap="round" stroke-linejoin="round"/>
<path d="M56.6279 1V14.0388" stroke="#262626" stroke-linecap="round" stroke-linejoin="round"/>
<path d="M17.3613 1V14.0388" stroke="#262626" stroke-linecap="round" stroke-linejoin="round"/>
<path d="M1 27.0776H72.9888" stroke="#262626" stroke-linecap="round" stroke-linejoin="round"/>
<rect x="8.49756" y="36.6545" width="12.693" height="12.6406" rx="2" stroke="#262626"/>
<rect x="30.2451" y="36.6545" width="12.693" height="12.6406" rx="2" stroke="#262626"/>
<rect x="51.9927" y="36.6545" width="12.693" height="12.6406" rx="2" stroke="#262626"/>
<rect x="8.49756" y="57.5166" width="12.693" height="12.6406" rx="2" stroke="#262626"/>
<rect x="30.2451" y="57.5166" width="12.693" height="12.6406" rx="2" stroke="#262626"/>
<path d="M62.3667 85C73.2099 85 82 76.2435 82 65.4418C82 54.6401 73.2099 45.8835 62.3667 45.8835C51.5235 45.8835 42.7334 54.6401 42.7334 65.4418C42.7334 76.2435 51.5235 85 62.3667 85Z" fill="#F8F7F4" stroke="#262626" stroke-linecap="round" stroke-linejoin="round"/>
<path d="M71.3654 60.5522L59.3672 71.9612L53.3682 66.2567" stroke="#262626" stroke-linecap="round" stroke-linejoin="round"/>
</svg>
