<svg width="32" height="32" viewBox="0 0 32 32" fill="none" xmlns="http://www.w3.org/2000/svg">
<path d="M26 5H6C5.44772 5 5 5.44772 5 6V26C5 26.5523 5.44772 27 6 27H26C26.5523 27 27 26.5523 27 26V6C27 5.44772 26.5523 5 26 5Z" stroke="#262626" stroke-linecap="round" stroke-linejoin="round"/>
<path d="M22 3V7" stroke="#262626" stroke-linecap="round" stroke-linejoin="round"/>
<path d="M10 3V7" stroke="#262626" stroke-linecap="round" stroke-linejoin="round"/>
<path d="M5 11H27" stroke="#262626" stroke-linecap="round" stroke-linejoin="round"/>
<path d="M15.0839 22.31C15.2039 22.31 15.2972 22.34 15.3639 22.4C15.4306 22.46 15.4639 22.5433 15.4639 22.65C15.4639 22.8833 15.3372 23 15.0839 23H11.1639C11.0506 23 10.9572 22.9667 10.8839 22.9C10.8106 22.8267 10.7739 22.74 10.7739 22.64C10.7739 22.5133 10.8206 22.4033 10.9139 22.31L13.3239 19.66C13.6572 19.2867 13.8972 18.9533 14.0439 18.66C14.1972 18.36 14.2739 18.06 14.2739 17.76C14.2739 17.3733 14.1606 17.0767 13.9339 16.87C13.7139 16.6633 13.4006 16.56 12.9939 16.56C12.6739 16.56 12.3672 16.62 12.0739 16.74C11.7806 16.8533 11.4872 17.03 11.1939 17.27C11.0939 17.35 11.0006 17.39 10.9139 17.39C10.8406 17.39 10.7772 17.3567 10.7239 17.29C10.6706 17.2167 10.6439 17.13 10.6439 17.03C10.6439 16.89 10.6972 16.7767 10.8039 16.69C11.0772 16.4367 11.4106 16.2367 11.8039 16.09C12.1972 15.9433 12.6006 15.87 13.0139 15.87C13.6472 15.87 14.1506 16.0367 14.5239 16.37C14.9039 16.7033 15.0939 17.1533 15.0939 17.72C15.0939 18.1267 15.0006 18.5167 14.8139 18.89C14.6339 19.2633 14.3339 19.68 13.9139 20.14L11.9139 22.31H15.0839ZM21.33 20.79C21.45 20.79 21.5433 20.8233 21.61 20.89C21.6767 20.95 21.71 21.03 21.71 21.13C21.71 21.3567 21.5833 21.47 21.33 21.47H20.58V22.63C20.58 22.7633 20.54 22.8667 20.46 22.94C20.3867 23.0133 20.29 23.05 20.17 23.05C20.05 23.05 19.9533 23.0133 19.88 22.94C19.8067 22.8667 19.77 22.7633 19.77 22.63V21.47H16.81C16.69 21.47 16.5967 21.4367 16.53 21.37C16.4633 21.3033 16.43 21.22 16.43 21.12C16.43 21.0267 16.4667 20.9233 16.54 20.81L19.81 16.08C19.9033 15.96 20.0233 15.9 20.17 15.9C20.2833 15.9 20.38 15.9367 20.46 16.01C20.54 16.0833 20.58 16.1867 20.58 16.32V20.79H21.33ZM17.36 20.79H19.77V17.32L17.36 20.79Z" fill="#262626"/>
<path d="M15.3639 22.4L15.297 22.4743L15.3639 22.4ZM10.8839 22.9L10.8131 22.9708L10.8166 22.974L10.8839 22.9ZM10.9139 22.31L10.9847 22.3808L10.9879 22.3773L10.9139 22.31ZM13.3239 19.66L13.3979 19.7273L13.3985 19.7266L13.3239 19.66ZM14.0439 18.66L13.9549 18.6145L13.9545 18.6153L14.0439 18.66ZM13.9339 16.87L13.8654 16.9429L13.8665 16.9439L13.9339 16.87ZM12.0739 16.74L12.11 16.8333L12.1118 16.8326L12.0739 16.74ZM11.1939 17.27L11.2564 17.3481L11.2572 17.3474L11.1939 17.27ZM10.7239 17.29L10.6429 17.3489L10.6458 17.3525L10.7239 17.29ZM10.8039 16.69L10.8671 16.7678L10.8719 16.7633L10.8039 16.69ZM14.5239 16.37L14.4573 16.4446L14.458 16.4452L14.5239 16.37ZM14.8139 18.89L14.7245 18.8453L14.7238 18.8466L14.8139 18.89ZM13.9139 20.14L13.9874 20.2078L13.9878 20.2074L13.9139 20.14ZM11.9139 22.31L11.8404 22.2422L11.6857 22.41H11.9139V22.31ZM15.0839 22.41C15.1877 22.41 15.2542 22.4358 15.297 22.4743L15.4308 22.3257C15.3403 22.2442 15.2201 22.21 15.0839 22.21V22.41ZM15.297 22.4743C15.3386 22.5118 15.3639 22.5658 15.3639 22.65H15.5639C15.5639 22.5208 15.5225 22.4082 15.4308 22.3257L15.297 22.4743ZM15.3639 22.65C15.3639 22.749 15.3374 22.8056 15.3012 22.8389C15.2634 22.8738 15.1971 22.9 15.0839 22.9V23.1C15.224 23.1 15.3478 23.0679 15.4367 22.9861C15.5271 22.9028 15.5639 22.7843 15.5639 22.65H15.3639ZM15.0839 22.9H11.1639V23.1H15.0839V22.9ZM11.1639 22.9C11.0716 22.9 11.0035 22.8735 10.9512 22.826L10.8166 22.974C10.911 23.0598 11.0295 23.1 11.1639 23.1V22.9ZM10.9546 22.8293C10.8993 22.7739 10.8739 22.7124 10.8739 22.64H10.6739C10.6739 22.7676 10.7219 22.8794 10.8132 22.9707L10.9546 22.8293ZM10.8739 22.64C10.8739 22.5411 10.9092 22.4562 10.9846 22.3807L10.8432 22.2393C10.732 22.3505 10.6739 22.4856 10.6739 22.64H10.8739ZM10.9879 22.3773L13.3979 19.7273L13.2499 19.5927L10.8399 22.2427L10.9879 22.3773ZM13.3985 19.7266C13.735 19.3497 13.9812 19.009 14.1333 18.7047L13.9545 18.6153C13.8133 18.8977 13.5795 19.2236 13.2493 19.5934L13.3985 19.7266ZM14.1329 18.7055C14.2926 18.3932 14.3739 18.0777 14.3739 17.76H14.1739C14.1739 18.0423 14.1019 18.3268 13.9549 18.6145L14.1329 18.7055ZM14.3739 17.76C14.3739 17.353 14.2539 17.0264 14.0013 16.7961L13.8665 16.9439C14.0673 17.1269 14.1739 17.3936 14.1739 17.76H14.3739ZM14.0024 16.7971C13.7582 16.5677 13.417 16.46 12.9939 16.46V16.66C13.3841 16.66 13.6696 16.759 13.8654 16.9429L14.0024 16.7971ZM12.9939 16.46C12.6611 16.46 12.3415 16.5225 12.036 16.6474L12.1118 16.8326C12.393 16.7175 12.6868 16.66 12.9939 16.66V16.46ZM12.0379 16.6467C11.7329 16.7646 11.4305 16.9472 11.1306 17.1926L11.2572 17.3474C11.544 17.1128 11.8283 16.9421 12.1099 16.8333L12.0379 16.6467ZM11.1314 17.1919C11.041 17.2643 10.9693 17.29 10.9139 17.29V17.49C11.0319 17.49 11.1468 17.4357 11.2564 17.3481L11.1314 17.1919ZM10.9139 17.29C10.8761 17.29 10.8398 17.2748 10.802 17.2275L10.6458 17.3525C10.7146 17.4385 10.805 17.49 10.9139 17.49V17.29ZM10.8048 17.2312C10.7652 17.1767 10.7439 17.1111 10.7439 17.03H10.5439C10.5439 17.1489 10.576 17.2566 10.643 17.3488L10.8048 17.2312ZM10.7439 17.03C10.7439 16.9195 10.7842 16.8349 10.867 16.7676L10.7408 16.6124C10.6103 16.7185 10.5439 16.8605 10.5439 17.03H10.7439ZM10.8719 16.7633C11.1345 16.5199 11.4562 16.3264 11.8388 16.1837L11.769 15.9963C11.3649 16.147 11.02 16.3534 10.7359 16.6167L10.8719 16.7633ZM11.8388 16.1837C12.2212 16.0411 12.6127 15.97 13.0139 15.97V15.77C12.5885 15.77 12.1733 15.8455 11.769 15.9963L11.8388 16.1837ZM13.0139 15.97C13.6294 15.97 14.1068 16.1316 14.4573 16.4446L14.5905 16.2954C14.1944 15.9417 13.6651 15.77 13.0139 15.77V15.97ZM14.458 16.4452C14.8136 16.7571 14.9939 17.1782 14.9939 17.72H15.1939C15.1939 17.1284 14.9943 16.6496 14.5899 16.2948L14.458 16.4452ZM14.9939 17.72C14.9939 18.1107 14.9044 18.4855 14.7245 18.8453L14.9033 18.9347C15.0968 18.5479 15.1939 18.1426 15.1939 17.72H14.9939ZM14.7238 18.8466C14.5496 19.2079 14.2565 19.6165 13.8401 20.0726L13.9878 20.2074C14.4114 19.7435 14.7182 19.3187 14.904 18.9334L14.7238 18.8466ZM13.8404 20.0722L11.8404 22.2422L11.9874 22.3778L13.9874 20.2078L13.8404 20.0722ZM11.9139 22.41H15.0839V22.21H11.9139V22.41ZM21.61 20.89L21.5392 20.9608L21.5431 20.9643L21.61 20.89ZM20.58 21.47V21.37H20.48V21.47H20.58ZM20.46 22.94L20.3924 22.8662L20.3893 22.8693L20.46 22.94ZM19.88 22.94L19.8093 23.0107L19.88 22.94ZM19.77 21.47H19.87V21.37H19.77V21.47ZM16.53 21.37L16.4593 21.4407L16.53 21.37ZM16.54 20.81L16.4577 20.7531L16.456 20.7557L16.54 20.81ZM19.81 16.08L19.7309 16.0185L19.7277 16.0231L19.81 16.08ZM20.46 16.01L20.5276 15.9363V15.9363L20.46 16.01ZM20.58 20.79H20.48V20.89H20.58V20.79ZM17.36 20.79L17.2779 20.733L17.1688 20.89H17.36V20.79ZM19.77 20.79V20.89H19.87V20.79H19.77ZM19.77 17.32H19.87V17.0007L19.6879 17.263L19.77 17.32ZM21.33 20.89C21.4311 20.89 21.4961 20.9176 21.5393 20.9607L21.6807 20.8193C21.5905 20.7291 21.4689 20.69 21.33 20.69V20.89ZM21.5431 20.9643C21.5861 21.0031 21.61 21.0547 21.61 21.13H21.81C21.81 21.0053 21.7672 20.8969 21.6769 20.8157L21.5431 20.9643ZM21.61 21.13C21.61 21.2249 21.584 21.2785 21.5483 21.3105C21.5105 21.3443 21.4438 21.37 21.33 21.37V21.57C21.4695 21.57 21.5928 21.539 21.6817 21.4595C21.7727 21.3781 21.81 21.2618 21.81 21.13H21.61ZM21.33 21.37H20.58V21.57H21.33V21.37ZM20.48 21.47V22.63H20.68V21.47H20.48ZM20.48 22.63C20.48 22.7422 20.4472 22.8161 20.3924 22.8663L20.5276 23.0137C20.6328 22.9172 20.68 22.7845 20.68 22.63H20.48ZM20.3893 22.8693C20.3377 22.9209 20.268 22.95 20.17 22.95V23.15C20.312 23.15 20.4357 23.1058 20.5307 23.0107L20.3893 22.8693ZM20.17 22.95C20.072 22.95 20.0023 22.9209 19.9507 22.8693L19.8093 23.0107C19.9043 23.1058 20.028 23.15 20.17 23.15V22.95ZM19.9507 22.8693C19.9011 22.8197 19.87 22.7447 19.87 22.63H19.67C19.67 22.7819 19.7123 22.9137 19.8093 23.0107L19.9507 22.8693ZM19.87 22.63V21.47H19.67V22.63H19.87ZM19.77 21.37H16.81V21.57H19.77V21.37ZM16.81 21.37C16.7089 21.37 16.6439 21.3424 16.6007 21.2993L16.4593 21.4407C16.5495 21.5309 16.6711 21.57 16.81 21.57V21.37ZM16.6007 21.2993C16.554 21.2526 16.53 21.1953 16.53 21.12H16.33C16.33 21.2447 16.3726 21.3541 16.4593 21.4407L16.6007 21.2993ZM16.53 21.12C16.53 21.0527 16.5567 20.9683 16.624 20.8643L16.456 20.7557C16.3767 20.8783 16.33 21.0006 16.33 21.12H16.53ZM16.6223 20.8669L19.8923 16.1369L19.7277 16.0231L16.4577 20.7531L16.6223 20.8669ZM19.8889 16.1414C19.9641 16.0447 20.0555 16 20.17 16V15.8C19.9912 15.8 19.8425 15.8753 19.7311 16.0186L19.8889 16.1414ZM20.17 16C20.2595 16 20.3317 16.0281 20.3924 16.0837L20.5276 15.9363C20.4283 15.8452 20.3071 15.8 20.17 15.8V16ZM20.3924 16.0837C20.4472 16.1339 20.48 16.2078 20.48 16.32H20.68C20.68 16.1655 20.6328 16.0328 20.5276 15.9363L20.3924 16.0837ZM20.48 16.32V20.79H20.68V16.32H20.48ZM20.58 20.89H21.33V20.69H20.58V20.89ZM17.36 20.89H19.77V20.69H17.36V20.89ZM19.87 20.79V17.32H19.67V20.79H19.87ZM19.6879 17.263L17.2779 20.733L17.4421 20.847L19.8521 17.377L19.6879 17.263Z" fill="#262626"/>
</svg>
