<svg width="20" height="9" viewBox="0 0 20 9" fill="none" xmlns="http://www.w3.org/2000/svg">
<path d="M1.46167 1C1.46167 1 4.69242 4.90375 10.2308 4.78944C15.7693 4.67513 18.5385 1 18.5385 1" stroke="#262626" stroke-linecap="round"/>
<path fill-rule="evenodd" clip-rule="evenodd" d="M1.07022 6.25047L3.37789 2.88208L4.16065 3.32839L1.85298 6.69678C1.71788 6.89397 1.43314 6.95392 1.21698 6.83067C1.00083 6.70743 0.93512 6.44766 1.07022 6.25047Z" fill="#262626"/>
<path fill-rule="evenodd" clip-rule="evenodd" d="M18.9298 6.25047L16.6221 2.88208L15.8393 3.32839L18.147 6.69678C18.2821 6.89397 18.5669 6.95392 18.783 6.83067C18.9992 6.70743 19.0649 6.44766 18.9298 6.25047Z" fill="#262626"/>
<path fill-rule="evenodd" clip-rule="evenodd" d="M6.54948 8.48753L7.47255 4.69809L8.37364 4.88077L7.45057 8.67021C7.39527 8.89721 7.14873 9.04033 6.8999 8.98989C6.65107 8.93944 6.49418 8.71453 6.54948 8.48753Z" fill="#262626"/>
<path fill-rule="evenodd" clip-rule="evenodd" d="M13.9121 8.48753L12.989 4.69809L12.0879 4.88077L13.011 8.67021C13.0663 8.89721 13.3128 9.04033 13.5616 8.98989C13.8105 8.93944 13.9674 8.71453 13.9121 8.48753Z" fill="#262626"/>
</svg>
