<svg width="44" height="44" viewBox="0 0 44 44" fill="none" xmlns="http://www.w3.org/2000/svg">
<path d="M22 19.3914L22 31.1305" stroke="#262626" stroke-linecap="round" stroke-linejoin="round"/>
<path d="M22 12L22 15.0435" stroke="#262626" stroke-linecap="round" stroke-linejoin="round"/>
<path d="M22.0001 19.3913C23.2007 19.3913 24.174 18.418 24.174 17.2174C24.174 16.0168 23.2007 15.0435 22.0001 15.0435C20.7995 15.0435 19.8262 16.0168 19.8262 17.2174C19.8262 18.418 20.7995 19.3913 22.0001 19.3913Z" stroke="#262626" stroke-linecap="round" stroke-linejoin="round"/>
<path d="M29.8262 28.0869L29.8263 31.1304" stroke="#262626" stroke-linecap="round" stroke-linejoin="round"/>
<path d="M29.8263 12L29.8262 23.7391" stroke="#262626" stroke-linecap="round" stroke-linejoin="round"/>
<path d="M29.826 28.0868C31.0266 28.0868 31.9999 27.1135 31.9999 25.9129C31.9999 24.7123 31.0266 23.739 29.826 23.739C28.6254 23.739 27.6521 24.7123 27.6521 25.9129C27.6521 27.1135 28.6254 28.0868 29.826 28.0868Z" stroke="#262626" stroke-linecap="round" stroke-linejoin="round"/>
<path d="M14.1739 24.6086L14.1738 31.1304" stroke="#262626" stroke-linecap="round" stroke-linejoin="round"/>
<path d="M14.1738 12L14.1739 20.2609" stroke="#262626" stroke-linecap="round" stroke-linejoin="round"/>
<path d="M14.1739 24.6088C15.3745 24.6088 16.3478 23.6355 16.3478 22.4349C16.3478 21.2343 15.3745 20.261 14.1739 20.261C12.9733 20.261 12 21.2343 12 22.4349C12 23.6355 12.9733 24.6088 14.1739 24.6088Z" stroke="#262626" stroke-linecap="round" stroke-linejoin="round"/>
</svg>
