<svg width="25" height="23" viewBox="0 0 25 23" fill="none" xmlns="http://www.w3.org/2000/svg">
<path d="M12.5 15.0938C14.5711 15.0938 16.25 13.4848 16.25 11.5C16.25 9.51523 14.5711 7.90625 12.5 7.90625C10.4289 7.90625 8.75 9.51523 8.75 11.5C8.75 13.4848 10.4289 15.0938 12.5 15.0938Z" stroke="#262626" stroke-miterlimit="10"/>
<path d="M16.625 3.23438H8.375C5.88972 3.23438 3.875 5.16515 3.875 7.54688V15.4531C3.875 17.8349 5.88972 19.7656 8.375 19.7656H16.625C19.1103 19.7656 21.125 17.8349 21.125 15.4531V7.54688C21.125 5.16515 19.1103 3.23438 16.625 3.23438Z" stroke="#262626" stroke-linecap="round" stroke-linejoin="round"/>
<path d="M17.375 7.90625C17.9963 7.90625 18.5 7.42356 18.5 6.82812C18.5 6.23269 17.9963 5.75 17.375 5.75C16.7537 5.75 16.25 6.23269 16.25 6.82812C16.25 7.42356 16.7537 7.90625 17.375 7.90625Z" fill="#262626"/>
</svg>
