<svg width="22" height="16" viewBox="0 0 22 16" fill="none" xmlns="http://www.w3.org/2000/svg">
<path d="M20.2857 1H1.71429C1.3198 1 1 1.39437 1 1.88086V14.2129C1 14.6994 1.3198 15.0938 1.71429 15.0938H20.2857C20.6802 15.0938 21 14.6994 21 14.2129V1.88086C21 1.39437 20.6802 1 20.2857 1Z" stroke="#262626" stroke-linecap="round" stroke-linejoin="round"/>
<path d="M11 11.1875C12.6569 11.1875 14 9.84435 14 8.1875C14 6.53065 12.6569 5.1875 11 5.1875C9.34315 5.1875 8 6.53065 8 8.1875C8 9.84435 9.34315 11.1875 11 11.1875Z" stroke="#262626" stroke-linecap="round" stroke-linejoin="round"/>
<path d="M15 1L21 7.40625" stroke="#262626" stroke-linecap="round" stroke-linejoin="round"/>
<path d="M15 15.0938L21 8.6875" stroke="#262626" stroke-linecap="round" stroke-linejoin="round"/>
<path d="M7 1L1 7.40625" stroke="#262626" stroke-linecap="round" stroke-linejoin="round"/>
<path d="M7 15.0938L1 8.6875" stroke="#262626" stroke-linecap="round" stroke-linejoin="round"/>
</svg>
