<svg width="24" height="24" viewBox="0 0 24 24" fill="none" xmlns="http://www.w3.org/2000/svg">
<g clip-path="url(#clip0_1781:7811)">
<path d="M4.79201 7.36084C4.39121 7.38004 3.89708 7.63525 3.61388 7.99365C3.35468 8.30325 3.13288 8.80526 3.18888 9.27647C3.64168 9.31567 4.09555 9.04089 4.37795 8.69209C4.65635 8.33289 4.83921 7.85204 4.79201 7.36084ZM8.64045 8.32021V15.5202H9.77951V13.1202H11.3404C12.7724 13.1202 13.7998 12.1242 13.7998 10.7202C13.7998 9.31622 12.7907 8.32021 11.3779 8.32021H8.64045ZM9.77951 9.27959H11.0998C12.0822 9.27959 12.6592 9.81062 12.6592 10.7202C12.6592 11.6298 12.087 12.1593 11.0998 12.1593H9.77951V9.27959ZM4.74045 9.52022C4.08045 9.52022 3.60782 9.87959 3.29982 9.87959C2.98702 9.87959 2.51951 9.52334 1.97951 9.52334C1.31951 9.52334 0.673434 9.93809 0.332634 10.5421C-0.367366 11.7493 0.151147 13.537 0.827947 14.5202C1.15995 15.0066 1.55982 15.5202 2.09982 15.5202C2.59502 15.5018 2.7616 15.2202 3.3592 15.2202C3.9608 15.2202 4.13951 15.5202 4.67951 15.5202C5.21951 15.5202 5.54675 15.0254 5.87795 14.539C6.25635 13.987 6.41053 13.4482 6.42013 13.4202C6.41133 13.4114 5.37348 13.0131 5.36388 11.8155C5.35508 10.8139 6.18097 10.3365 6.21857 10.3093C5.75217 9.61648 4.97982 9.52022 4.79982 9.52022H4.74045ZM16.4154 10.2405C15.221 10.2405 14.3389 10.9104 14.3061 11.8312H15.3186C15.4018 11.3936 15.817 11.1062 16.3842 11.1062C17.0722 11.1062 17.4608 11.4207 17.4608 11.9999V12.3999L16.0545 12.4749C14.7481 12.5525 14.042 13.0754 14.042 13.9874C14.042 14.9082 14.7714 15.5202 15.817 15.5202C16.5234 15.5202 17.1796 15.1684 17.4764 14.6124H17.4998V15.4655H18.5404V11.928C18.5396 10.9008 17.7026 10.2405 16.4154 10.2405ZM18.9592 10.2405L20.8842 15.4952L20.7811 15.8155C20.6075 16.3571 20.3249 16.5655 19.8233 16.5655C19.7377 16.5655 19.5758 16.5571 19.5014 16.5483V17.414C19.5766 17.4308 19.8401 17.4405 19.9217 17.4405C21.0289 17.4405 21.5501 17.0233 22.0061 15.7593L23.9998 10.2405H22.8451L21.5076 14.5046H21.4842L20.1467 10.2405H18.9592ZM17.4608 13.1202L17.4561 13.5374C17.4561 14.203 16.8802 14.6765 16.1186 14.6765C15.5194 14.6765 15.1373 14.3944 15.1373 13.9608C15.1373 13.5136 15.5052 13.254 16.2076 13.2124L17.4608 13.1202Z" fill="#262626"/>
</g>
<defs>
<clipPath id="clip0_1781:7811">
<rect width="24" height="24" fill="white"/>
</clipPath>
</defs>
</svg>
