<svg width="22" height="22" viewBox="0 0 22 22" fill="none" xmlns="http://www.w3.org/2000/svg">
<path fill-rule="evenodd" clip-rule="evenodd" d="M1.5 9.75028C1.5 5.19378 5.19378 1.5 9.75028 1.5C14.3068 1.5 18.0006 5.19378 18.0006 9.75028C18.0006 14.3068 14.3068 18.0006 9.75028 18.0006C5.19378 18.0006 1.5 14.3068 1.5 9.75028ZM9.75028 0.5C4.64149 0.5 0.5 4.64149 0.5 9.75028C0.5 14.8591 4.64149 19.0006 9.75028 19.0006C12.1246 19.0006 14.2899 18.1061 15.9277 16.6357L20.6464 21.3544C20.8417 21.5497 21.1583 21.5497 21.3535 21.3544C21.5488 21.1591 21.5488 20.8425 21.3535 20.6473L16.6349 15.9286C18.1057 14.2907 19.0006 12.125 19.0006 9.75028C19.0006 4.64149 14.8591 0.5 9.75028 0.5Z" fill="#262626"/>
</svg>
