<svg width="28" height="28" viewBox="0 0 28 28" fill="none" xmlns="http://www.w3.org/2000/svg">
<path d="M25.1694 13.4164L23.4051 4.59479L14.5835 2.83047C14.4423 2.80222 14.2962 2.80928 14.1584 2.85102C14.0205 2.89276 13.8951 2.9679 13.7932 3.06976L2.36869 14.4943C2.28744 14.5755 2.22299 14.672 2.17902 14.7782C2.13505 14.8843 2.11241 14.9981 2.11241 15.113C2.11241 15.2279 2.13505 15.3417 2.17902 15.4478C2.22299 15.554 2.28744 15.6505 2.36869 15.7317L12.2682 25.6312C12.3494 25.7125 12.4459 25.7769 12.5521 25.8209C12.6582 25.8649 12.772 25.8875 12.8869 25.8875C13.0018 25.8875 13.1156 25.8649 13.2218 25.8209C13.3279 25.7769 13.4244 25.7125 13.5056 25.6312L24.9301 14.2067C25.032 14.1048 25.1071 13.9794 25.1489 13.8415C25.1906 13.7037 25.1977 13.5576 25.1694 13.4164V13.4164Z" stroke="#BDBDBD" stroke-linecap="round" stroke-linejoin="round"/>
<path d="M17.5 9.1875C17.5 9.91237 18.0876 10.5 18.8125 10.5C19.5374 10.5 20.125 9.91237 20.125 9.1875C20.125 8.46263 19.5374 7.875 18.8125 7.875C18.0876 7.875 17.5 8.46263 17.5 9.1875Z" fill="#BDBDBD"/>
</svg>
