<svg width="28" height="28" viewBox="0 0 28 28" fill="none" xmlns="http://www.w3.org/2000/svg">
<path d="M19.25 6.125H24.5" stroke="#262626" stroke-linecap="round" stroke-linejoin="round"/>
<path d="M3.38965 23.624C4.46542 21.7619 6.01226 20.2158 7.87477 19.1408C9.73729 18.0659 11.8499 17.5 14.0004 17.5C16.1508 17.5 18.2634 18.066 20.1259 19.1409C21.9884 20.2159 23.5352 21.7621 24.6109 23.6242" stroke="#262626" stroke-linecap="round" stroke-linejoin="round"/>
<path d="M21.0001 10.5C20.9985 11.9518 20.545 13.3671 19.7026 14.5495C18.8602 15.7319 17.6706 16.6228 16.299 17.0985C14.9273 17.5742 13.4416 17.6111 12.048 17.2042C10.6544 16.7973 9.42201 15.9666 8.52187 14.8276C7.62172 13.6885 7.09845 12.2975 7.02466 10.8476C6.95088 9.39767 7.33024 7.96074 8.11011 6.73619C8.88998 5.51164 10.0317 4.5602 11.3768 4.01391C12.7219 3.46762 14.2037 3.35356 15.6165 3.68756" stroke="#262626" stroke-linecap="round" stroke-linejoin="round"/>
</svg>
